# xmcd
#
# Track frame offsets:
#	150
#	19737
#	34565
#	66440
#	81005
#	104960
#	127775
#	152707
#
# Disc length: 2288 seconds
#
# Revision: 1
# Processed by: cddbd v1.4PL0 Copyright (c) Steve Scherf et al.
# Submitted via: EasyCDDAExtractor 6.0.0.1
#
DISCID=6108ee08
DTITLE=The Egyptian Lover - On The Nile
DYEAR=1984
DGENRE=Rap
TTITLE0=My House (On The Nile)
TTITLE1=What Is A D.J. If He Can't Scratch
TTITLE2=Girls
TTITLE3=Computer Love (Sweet Dreams)
TTITLE4=Egypt Egypt
TTITLE5=I Cry (Night After Night)
TTITLE6=Unreal
TTITLE7=And My Beat Goes Boom
EXTD=
EXTT0=
EXTT1=
EXTT2=
EXTT3=
EXTT4=
EXTT5=
EXTT6=
EXTT7=
PLAYORDER=
